# xmcd
#
# Track frame offsets: 
#        150
#        16739
#        50251
#        80557
#        112551
#        148436
#
# Disc length: 2425 seconds
#
# Revision: 0
# Processed by: cddbd v1.5PL3 Copyright (c) Steve Scherf et al.
# Submitted via: ExactAudioCopy v0.95a5
#
DISCID=42097706
DTITLE=Syke `n' Sugarstarr - Ticket 2 Ride
DYEAR=2003
DGENRE=Dance
TTITLE0=Ticket 2 Ride (Radio Edit)
TTITLE1=Ticket 2 Ride (Syke `n' Sugarstarr Original Mix)
TTITLE2=Ticket 2 Ride (Phonicfood Remix)
TTITLE3=Ticket 2 Ride (Chrissi D! Electrax Remix)
TTITLE4=Ticket 2 Ride (Mojolators Remix)
TTITLE5=Ticket 2 Ride (Hardsoul's Latin Direction Dub)
EXTD=
EXTT0=
EXTT1=
EXTT2=
EXTT3=
EXTT4=
EXTT5=
PLAYORDER=
